<?xml version="1.0" encoding="utf-8"?>
<!-- Generator: Adobe Illustrator 25.0.0, SVG Export Plug-In . SVG Version: 6.00 Build 0)  -->
<svg version="1.1" id="Layer_1" xmlns="http://www.w3.org/2000/svg" xmlns:xlink="http://www.w3.org/1999/xlink" x="0px" y="0px"
	 viewBox="0 0 836 252.1" style="enable-background:new 0 0 836 252.1;" xml:space="preserve">
<style type="text/css">
	.st0{fill:#222221;}
	.st1{fill:#030403;}
	.st2{fill:none;}
	.st3{fill:none;stroke:#030403;stroke-width:14.57;stroke-miterlimit:10;}
	.st4{fill:none;stroke:#222221;stroke-width:2.1761;stroke-miterlimit:10;}
	.st5{fill:#060706;}
	.st6{fill:#429E72;}
</style>
<g>
	<path class="st0" d="M303.3,153.9v-49.1l-3,3h33.2l-3-3v24.4l3-3h-33.2c-3.9,0-3.9,6.1,0,6.1h33.2c1.7,0,3-1.4,3-3.1v-24.5
		c0-1.7-1.4-3-3-3.1h-33.2c-1.7,0-3,1.4-3,3.1v49.1C297.3,157.8,303.4,157.8,303.3,153.9"/>
	<path class="st0" d="M340.7,154.7l4.7-13.9l7.6-22.3l1.7-5.1c0.4-1.6-0.5-3.3-2.1-3.7c-1.6-0.4-3.3,0.5-3.7,2.1l-4.7,14l-7.5,22.3
		c-0.6,1.7-1.2,3.4-1.8,5.1c-0.4,1.6,0.5,3.3,2.1,3.8S340.3,156.3,340.7,154.7"/>
	<path class="st0" d="M368.8,153l-4.7-13.9l-7.5-22.3l-1.8-5.2c-0.5-1.6-2.1-2.5-3.8-2.1c-1.6,0.5-2.6,2.1-2.1,3.8l4.7,13.9
		l7.5,22.3c0.6,1.7,1.2,3.4,1.8,5.1c0.5,1.6,2.1,2.5,3.8,2.1C368.3,156.3,369.2,154.6,368.8,153"/>
	<path class="st1" d="M366.6,146.5l-4.9-14.4c-2.6-7.7-5.2-15.3-7.8-23l-1.8-5.3c-0.5-1.6-2.1-2.5-3.8-2.1c-1.6,0.5-2.6,2.1-2.1,3.8
		c1.6,4.8,3.3,9.6,4.9,14.4l7.8,23c0.6,1.8,1.2,3.6,1.8,5.3c0.5,1.6,2.1,2.5,3.8,2.1C366,149.8,367,148.2,366.6,146.5"/>
	<line class="st2" x1="423.4" y1="104.7" x2="423.4" y2="153.8"/>
	<path class="st0" d="M420.4,104.8v49.1c0,3.9,6.1,3.9,6.1,0v-49.1C426.5,100.8,420.4,100.8,420.4,104.8"/>
	<path class="st1" d="M376.1,104.8v48.9c0,2.1,2.7,4.1,4.6,2.6l29-21.4l4.2-3.1c1.5-0.9,1.9-2.8,1-4.3c-0.2-0.4-0.6-0.7-1-1
		l-29-21.4l-4.2-3.1c-1.5-0.8-3.3-0.4-4.2,1.1c-0.8,1.5-0.3,3.3,1.1,4.2l29,21.4l4.2,3.1v-5.3l-29,21.4l-4.2,3.1l4.6,2.6v-48.9
		C382.2,100.8,376.1,100.8,376.1,104.8"/>
	<path class="st3" d="M294.6,40.4c0,0,126-4,128.9,0s25.8-20.8,47.6-9.9c21.8,10.9,0,40.7,0,40.7l-5,6"/>
	<path class="st3" d="M429.1,40.4c0,0-126-4-128.9,0s-25.8-20.8-47.6-9.9s0,40.7,0,40.7l5,6"/>
	<path class="st1" d="M456.3,70c2.8,0.5,5.5,1.7,7.8,3.4c1.2,0.8,2.4,1.7,3.4,2.7c1.1,1,2,2.1,3,3.2c3.7,4.6,6.5,9.8,8.3,15.5
		c1.8,5.5,2.9,11.2,3.4,17c0.1,0.7,0.1,1.4,0.1,2.1v2.1l0.1,4.3c0,2.8-0.3,5.6-0.5,8.4l-0.2,2.1l-0.3,2l-0.6,4.1
		c-0.4,2.7-0.9,5.4-1.5,8.1c-0.6,2.7-1.2,5.4-1.9,8.1s-1.6,5.3-2.5,8c-1.8,5.3-4.2,10.5-7.1,15.3c-0.8,1.2-1.5,2.4-2.4,3.6
		c-0.8,1.2-1.7,2.3-2.7,3.3c-0.9,1.1-2,2.1-3.1,3c-1.1,0.9-2.3,1.7-3.7,2.2c0.8-1.1,1.4-2.3,1.9-3.6c0.3-0.6,0.5-1.2,0.7-1.9
		s0.4-1.2,0.6-1.9c0.8-2.5,1.4-5,2-7.5c1.1-5.1,1.9-10.2,2.6-15.3l0.5-3.9c0.2-1.3,0.3-2.6,0.5-3.9l0.5-3.9c0.2-1.3,0.3-2.6,0.4-3.9
		c0.3-2.6,0.6-5.2,0.8-7.8l0.4-3.9l0.2-2l0.1-1.9c1.1-10,1.2-20,0.2-30c-0.5-4.9-1.6-9.7-3.3-14.4c-0.5-1.1-1-2.3-1.5-3.4
		c-0.5-1.2-1.1-2.3-1.8-3.3C459.9,73.8,458.3,71.7,456.3,70"/>
	<path class="st1" d="M267.8,70c-2,1.8-3.6,3.9-5,6.2c-0.7,1.1-1.2,2.2-1.8,3.3c-0.6,1.1-1,2.3-1.5,3.4c-1.7,4.6-2.8,9.5-3.3,14.4
		c-1,10-0.9,20,0.2,30l0.1,1.9l0.2,2l0.4,3.9c0.2,2.6,0.6,5.2,0.8,7.8c0.1,1.3,0.2,2.6,0.4,3.9l0.5,3.9c0.1,1.3,0.3,2.6,0.5,3.9
		l0.5,3.9c0.7,5.1,1.5,10.2,2.6,15.3c0.6,2.5,1.2,5.1,2,7.5c0.2,0.6,0.4,1.3,0.6,1.9c0.2,0.6,0.4,1.3,0.7,1.9
		c0.5,1.3,1.1,2.5,1.9,3.6c-1.3-0.5-2.6-1.3-3.6-2.2c-1.1-0.9-2.1-1.9-3.1-3c-1-1.1-1.9-2.2-2.7-3.3c-0.8-1.1-1.6-2.4-2.4-3.6
		c-2.9-4.9-5.2-10-7.1-15.3c-0.9-2.6-1.8-5.3-2.5-8s-1.4-5.4-1.9-8.1s-1.1-5.4-1.5-8.1l-0.6-4.1l-0.3-2l-0.2-2.2
		c-0.2-2.8-0.5-5.6-0.5-8.4l0.1-4.3l0.1-2.1c0-0.7,0-1.4,0.1-2.1c0.4-5.8,1.5-11.5,3.4-17c1.8-5.6,4.6-10.8,8.3-15.4
		c1-1.1,2-2.2,3.1-3.2c1.1-1,2.2-1.9,3.4-2.7C262.2,71.6,264.9,70.5,267.8,70"/>
	<path class="st3" d="M429.1,211.1c0,0-126,4-128.9,0s-25.8,20.8-47.6,9.9s0-40.7,0-40.7l5-5.9"/>
	<path class="st3" d="M294.6,211.1c0,0,126,4,128.9,0s25.8,20.8,47.6,9.9c21.8-10.9,0-40.7,0-40.7l-5-5.9"/>
</g>
<g>
	<polygon class="st0" points="21.2,234.3 32.8,234.3 32.8,204.7 21.2,217.2 	"/>
	<polygon class="st0" points="56.3,179.1 56.3,172.3 49,165.7 37.7,165.7 21.2,187.2 21.2,205.3 32.8,192.8 32.8,175.7 44.7,175.7 
		44.7,191.6 34,203.4 49,203.4 56.3,196.9 56.3,179.2 65.9,179.2 67.9,166.6 	"/>
	<polygon class="st0" points="121.6,84.9 114.2,78.3 104.9,78.3 86.4,102.4 86.4,134.7 98,122.2 98,88.3 110,88.3 110,136.8 
		98,136.8 98,134.1 86.4,146.6 79.6,111.2 63.4,132.3 56.7,166.9 70.2,152.2 73.5,131.8 77.4,156.3 68.1,166.4 79.1,166.4 
		81.1,179.2 92.7,179.2 86.5,146.9 114.2,146.9 121.6,140.3 121.6,108.9 133.2,108.9 133.2,96.1 121.6,108.7 121.6,96.8 133.2,84.2 
		133.2,41.5 121.6,56.6 	"/>
	<polygon class="st4" points="63.8,115 63.8,115 9.5,185.5 9.5,242.6 144.8,242.6 144.8,9.5 	"/>
</g>
<g>
	<path class="st5" d="M699.8,72.1v123.5h87.9v-31.4C771.9,135.7,743.3,94.8,699.8,72.1"/>
	<path class="st5" d="M632.5,117.4c6.7,8.3,12.9,17,18.6,26l10.3,16.4h-61.1v35.8h87.9V72.1C665.7,83.8,647.3,100.3,632.5,117.4"/>
	<path class="st5" d="M642.1,149.2c-16.7-26.5-42.6-58.1-79-77v96.7c0,14.8,12,26.8,26.8,26.8c0,0,0,0,0,0v-46.5H642.1z"/>
	<path class="st5" d="M704.7,62.7c38,19.8,65.1,52.3,82.9,80.6V56.5h-87.8v3.6L704.7,62.7z"/>
	<path class="st5" d="M621.4,56.5h-54.7c-2,0-3.6,1.6-3.6,3.6l4.9,2.6c21.2,11,39,26.2,53.3,41.8L621.4,56.5z"/>
	<path class="st5" d="M632.1,116.9l0.4,0.5v-1L632.1,116.9z"/>
	<path class="st5" d="M682.7,62.7l4.9-2.6v-3.6H632v45C647.7,85.1,664.7,72,682.7,62.7"/>
	<path class="st5" d="M804.7,69.6c7.6,4,14.9,8.5,21.9,13.5c0-14.7-11.9-26.6-26.6-26.6l0,0h-0.7v10.2L804.7,69.6z"/>
	<path class="st5" d="M826.6,96.4c-8.4-6.6-17.3-12.5-26.8-17.5l-0.5,34.2v82.4c14.8,0,26.8-12,26.8-26.8v-19.7L826.6,96.4z"/>
	<path class="st6" d="M713.6,96.6v84.9h60.3v-14.1C761.1,144.9,741.3,117,713.6,96.6"/>
	<path class="st6" d="M614,173.6h60.3v8.3H614V173.6z M662.8,136.1c-3.9-6.2-8-12.2-12.3-18c7.4-7.7,15.4-14.8,23.9-21.2v57.5
		L662.8,136.1z"/>
	<path class="st6" d="M576.9,135.4V97c15.5,11.5,28.4,25.2,38.7,38.4H576.9z"/>
</g>
</svg>
